<svg viewBox="0 0 24 24" xmlns="http://www.w3.org/2000/svg" fill="#FC6B2B"><g id="SVGRepo_bgCarrier" stroke-width="0"></g><g id="SVGRepo_tracerCarrier" stroke-linecap="round" stroke-linejoin="round"></g><g id="SVGRepo_iconCarrier"> <rect x="0" fill="none" width="24" height="24"></rect> <g> <path d="M6.14 14.97l2.828 2.827c-.362.362-.862.586-1.414.586-1.105 0-2-.895-2-2 0-.552.224-1.052.586-1.414zm8.867 5.324L14.3 21 3 9.7l.706-.707 1.102.157c.754.108 1.69-.122 2.077-.51l3.885-3.884c2.34-2.34 6.135-2.34 8.475 0s2.34 6.135 0 8.475l-3.885 3.886c-.388.388-.618 1.323-.51 2.077l.157 1.1z"></path> </g> </g></svg>